<?xml version="1.0" encoding="utf-8"?>
<!-- Svg Vector Icons : http://www.onlinewebfonts.com/icon -->
<!DOCTYPE svg PUBLIC "-//W3C//DTD SVG 1.1//EN" "http://www.w3.org/Graphics/SVG/1.1/DTD/svg11.dtd">
<svg version="1.1" xmlns="http://www.w3.org/2000/svg" xmlns:xlink="http://www.w3.org/1999/xlink" x="0px" y="0px" viewBox="0 0 256 256" enable-background="new 0 0 256 256" xml:space="preserve">
<metadata> Svg Vector Icons : http://www.onlinewebfonts.com/icon </metadata>
<g><g><path fill="#000000" d="M15.6,20.4l3.7-3.7h-3.7l1.9,1.9l218.9,218.9l1.9,1.9v-3.7l-3.7,3.7h3.7l-1.9-1.9L17.4,18.6l-1.9-1.9V20.4L15.6,20.4z M11.9,16.7L10,18.6l1.9,1.9l1.9,1.9l218.9,218.9l1.9,1.9l1.9,1.9l1.9-1.9l3.7-3.7l1.9-1.9l-1.9-1.9l-1.9-1.9L21.2,14.8L19.3,13l-1.9-1.9L15.6,13L11.9,16.7L11.9,16.7z M236.7,16.7l3.7,3.7v-3.7l-1.9,1.9L19.7,237.4l-1.9,1.9h3.7l-3.7-3.7v3.7l1.9-1.9L238.6,18.6l1.9-1.9L236.7,16.7L236.7,16.7z M240.4,13l-1.9-1.9l-1.9,1.9l-1.9,1.9L15.9,233.7l-1.9,1.9l-1.9,1.9l1.9,1.9l3.7,3.7l1.9,1.9l1.9-1.9l1.9-1.9L242.3,22.3l1.9-1.9l1.9-1.9l-1.9-1.9L240.4,13L240.4,13z"/></g></g>
</svg>